# xmcd
#
# Track frame offsets: 
#        150
#        17427
#        41661
#        63020
#        79805
#        96317
#        114784
#        134464
#        153731
#        170042
#        194485
#
# Disc length: 2840 seconds
#
# Revision: 0
# Processed by: cddbd v1.5.2PL0 Copyright (c) Steve Scherf et al.
# Submitted via: ExactAudioCopy v1.0b3
#
DISCID=8d0b160b
DTITLE=David Shelley and Bluestone - Trick Bag
DYEAR=2013
DGENRE=Blues-Rock
TTITLE0=When I Was Your Superman
TTITLE1=Trick Bag
TTITLE2=Blackwater River
TTITLE3=You Got a Heart of Stone
TTITLE4=Birth of the Blues
TTITLE5=High Alert
TTITLE6=War Party
TTITLE7=Carolina Bound
TTITLE8=Nothin to Lose
TTITLE9=Fallen Rain
TTITLE10=City of Angels
EXTD=
EXTT0=
EXTT1=
EXTT2=
EXTT3=
EXTT4=
EXTT5=
EXTT6=
EXTT7=
EXTT8=
EXTT9=
EXTT10=
PLAYORDER=
